# xmcd
# 
# Track frame offsets:
#     150
#     9450
#     18485
#     29426
#     41250
#     50953
#     61719
#     71039
#     81871
#     92147
#     103556
#     115522
#     125246
#     137425
#     145526
#     156351
#     169095
#     181149
#     189982
#     202533
# 
# Disc length: 2832
# 
# Revision: 1
# Processed by: cddbd v1.5.2PL0 Copyright (c) Steve Scherf et al.
# Submitted via: fre:ac v1.0.17
# 
DISCID=030b0e14
DTITLE=Various Artist - 100 Rock 'n' Roll Favourites [CD2]
DYEAR=0
DGENRE=
TTITLE0=Elvis Pressley - Don´t be cruel
TTITLE1=The Everly Brothers - Wake up little Susie
TTITLE2=Chuck Berry - Roll over Beethoven
TTITLE3=Fats Domino - Ain´t that a Shame
TTITLE4=Buddy Holly - Everyday
TTITLE5=Little Richard - Lucille
TTITLE6=Roy Orbison - Rock House
TTITLE7=The Crew Cuts - Angels in the Sky
TTITLE8=Frankie Lymon - Why do fools fall in love
TTITLE9=Johnny Cash - Don´t make me go
TTITLE10=Bill Haley - Goofin around
TTITLE11=Cliff Richard - High class baby
TTITLE12=Chuck Berry - School day
TTITLE13=Elvis Pressley - Teddy Bear
TTITLE14=Little Richard - Tutti Frutti
TTITLE15=James Brown - Please, please, please
TTITLE16=The Four Coins - I love yoe mdadly
TTITLE17=Elvis Pressley - All shook up
TTITLE18=Sam Cooke - You send me
TTITLE19=Bill Haley - Collette
EXTD=
EXTT0=
EXTT1=
EXTT2=
EXTT3=
EXTT4=
EXTT5=
EXTT6=
EXTT7=
EXTT8=
EXTT9=
EXTT10=
EXTT11=
EXTT12=
EXTT13=
EXTT14=
EXTT15=
EXTT16=
EXTT17=
EXTT18=
EXTT19=
PLAYORDER=
